<svg width="368" height="368" viewBox="0 0 368 368" fill="none" xmlns="http://www.w3.org/2000/svg">
<path d="M184 247C172.745 247 163.234 245.316 155.468 241.947C147.814 238.578 142.017 233.861 138.078 227.797C134.139 221.62 132.113 214.545 132 206.572H162.896C162.896 210.053 163.684 213.086 165.26 215.668C166.835 218.251 169.255 220.273 172.519 221.733C175.784 223.193 180.061 223.922 185.351 223.922C191.203 223.922 195.818 222.912 199.195 220.89C202.684 218.757 204.429 215.725 204.429 211.794C204.429 209.211 203.978 207.078 203.078 205.393C202.29 203.709 200.883 202.361 198.857 201.35C196.944 200.227 194.242 199.273 190.753 198.487C187.264 197.701 182.874 196.914 177.584 196.128C170.494 195.005 164.247 193.489 158.844 191.58C153.554 189.559 149.108 187.088 145.506 184.168C141.905 181.249 139.203 177.767 137.403 173.725C135.602 169.682 134.701 164.965 134.701 159.575C134.701 151.602 136.671 144.751 140.61 139.024C144.662 133.185 150.346 128.749 157.662 125.717C165.091 122.572 173.926 121 184.169 121C193.961 121 202.403 122.572 209.494 125.717C216.697 128.749 222.268 133.016 226.208 138.519C230.26 144.021 232.286 150.422 232.286 157.722H201.896C201.671 154.241 200.658 151.489 198.857 149.468C197.169 147.334 194.918 145.818 192.104 144.92C189.403 144.021 186.476 143.572 183.325 143.572C179.723 143.572 176.628 144.078 174.039 145.088C171.45 146.099 169.424 147.503 167.961 149.299C166.61 150.984 165.935 153.062 165.935 155.532C165.935 158.901 166.835 161.428 168.636 163.112C170.55 164.797 173.589 166.088 177.753 166.987C181.918 167.885 187.32 168.84 193.961 169.85C199.026 170.636 204.035 171.703 208.987 173.051C213.939 174.398 218.442 176.42 222.493 179.115C226.545 181.81 229.81 185.516 232.286 190.233C234.762 194.949 236 201.07 236 208.594C236 216.118 234.03 222.799 230.091 228.639C226.264 234.366 220.524 238.858 212.87 242.115C205.216 245.372 195.593 247 184 247Z" fill="#111111"/>
<path d="M302.813 184C308.992 184 314.05 189.018 313.519 195.173C311.641 216.944 304.298 237.955 292.091 256.224C277.806 277.603 257.503 294.265 233.749 304.104C209.994 313.944 183.856 316.518 158.638 311.502C133.421 306.486 110.257 294.105 92.0761 275.924C73.8953 257.743 61.514 234.579 56.4979 209.362C51.4818 184.144 54.0563 158.006 63.8957 134.251C73.7351 110.497 90.3975 90.1935 111.776 75.909C130.045 63.7022 151.056 56.359 172.827 54.481C178.982 53.95 184 59.0085 184 65.1867V65.1867C184 71.3649 178.978 76.3132 172.833 76.9542C155.494 78.7629 138.794 84.7644 124.206 94.5117C106.507 106.338 92.712 123.147 84.566 142.813C76.42 162.479 74.2886 184.119 78.4414 204.997C82.5942 225.874 92.8446 245.052 107.896 260.104C122.948 275.155 142.126 285.406 163.003 289.559C183.881 293.711 205.521 291.58 225.187 283.434C244.853 275.288 261.662 261.493 273.488 243.794C283.236 229.206 289.237 212.506 291.046 195.167C291.687 189.022 296.635 184 302.813 184V184Z" fill="#111111"/>
<path d="M198.65 66.0933C199.411 59.9622 205.015 55.5611 211.058 56.8469C235.84 62.12 258.629 74.5437 276.538 92.6948C294.448 110.846 306.564 133.8 311.505 158.651C312.709 164.71 308.233 170.254 302.093 170.933V170.933C295.952 171.613 290.481 167.166 289.168 161.128C284.852 141.28 274.985 122.976 260.612 108.409C246.239 93.8414 228.069 83.73 208.28 79.1478C202.261 77.7541 197.888 72.2244 198.65 66.0933V66.0933Z" fill="#111111"/>
</svg>
